<?xml version="1.0" encoding="UTF-8"?>
<svg width="16px" height="16px" viewBox="0 0 16 16" version="1.1" xmlns="http://www.w3.org/2000/svg" xmlns:xlink="http://www.w3.org/1999/xlink">
    <!-- Generator: Sketch 60.1 (88133) - https://sketch.com -->
    <title>Icon-Close@2x</title>
    <desc>Created with Sketch.</desc>
    <g id="VirgoX-Web" stroke="none" stroke-width="1" fill="none" fill-rule="evenodd">
        <g id="2.4Login弹窗3备份-11" transform="translate(-595.000000, -572.000000)" fill="#888888">
            <g id="滑块验证" transform="translate(574.997589, 310.000000)">
                <g id="Icon-Close" transform="translate(20.002411, 262.000000)">
                    <path d="M15.5529003,0.446729869 C14.9568939,-0.148909956 13.9907207,-0.148909956 13.3947153,0.446729869 L7.99976158,5.84220457 L2.60480785,0.446729869 C2.00931072,-0.148909956 1.04262888,-0.148909956 0.447004467,0.446729869 C-0.149001479,1.04275119 -0.149001479,2.00894928 0.447004467,2.60497046 L5.84195805,8.0000639 L0.447004467,13.3951569 C-0.149001479,13.9911776 -0.149001479,14.9573755 0.447004467,15.5533972 C0.744562328,15.8509626 1.135584,16 1.52596974,16 C1.91635561,16 2.30674124,15.8514719 2.60480785,15.5533972 L7.99976158,10.1579227 L13.3947153,15.5533972 C13.6927814,15.8509626 14.083168,16 14.4735537,16 C14.8639393,16 15.254961,15.8514719 15.5529003,15.5533972 C16.1485252,14.9573755 16.1485252,13.9911776 15.5529003,13.3951569 L10.1580734,8.0000639 L15.5529003,2.60497046 C16.1490326,2.00894928 16.1490326,1.04275119 15.5529003,0.446729869 Z" id="Fill-4"></path>
                </g>
            </g>
        </g>
    </g>
</svg>