<?xml version="1.0" encoding="UTF-8"?>
<svg width="16px" height="18px" viewBox="0 0 16 18" version="1.1" xmlns="http://www.w3.org/2000/svg" xmlns:xlink="http://www.w3.org/1999/xlink">
    <!-- Generator: Sketch 60.1 (88133) - https://sketch.com -->
    <title>刷新@2x</title>
    <desc>Created with Sketch.</desc>
    <g id="VirgoX-Web" stroke="none" stroke-width="1" fill="none" fill-rule="evenodd">
        <g id="2.4Login弹窗3备份-11" transform="translate(-631.000000, -571.000000)" fill="#888888" fill-rule="nonzero">
            <g id="滑块验证" transform="translate(574.997589, 310.000000)">
                <g id="刷新" transform="translate(56.002411, 261.000000)">
                    <path d="M14.8571429,8.49166995 C14.2262102,8.49166995 13.7142857,9.00359439 13.7142857,9.63452709 L13.7142857,9.63641611 C13.7123967,12.7854126 11.1508855,15.3488128 8,15.3488128 C4.84911452,15.3488128 2.28571429,12.7854126 2.28571429,9.63452709 C2.28571429,6.48364161 4.84911452,3.92024137 8,3.92024137 C8.69515939,3.92024137 9.35442739,4.0638069 9.97213695,4.29237833 C9.36765053,4.34904893 8.88783943,4.84208317 8.88783943,5.46168175 C8.88783943,6.11906074 9.42054309,6.6517644 10.0779221,6.6517644 L13.8918536,6.6517644 C14.5492326,6.6517644 15.0819362,6.11906074 15.0819362,5.46168175 L15.0819362,1.63452709 C15.0819362,0.977148104 14.5492326,0.444444444 13.8918536,0.444444444 C13.2344746,0.444444444 12.701771,0.977148104 12.701771,1.63452709 L12.701771,3.17218943 C11.3813459,2.21067821 9.76056671,1.63452709 8,1.63452709 C3.58158205,1.63452709 0,5.21610914 0,9.63452709 C0,14.052945 3.58158205,17.6345271 8,17.6345271 C12.4184179,17.6345271 16,14.052945 16,9.63452709 C16,9.00359439 15.4880756,8.49166995 14.8571429,8.49166995 Z" id="路径"></path>
                </g>
            </g>
        </g>
    </g>
</svg>