<?xml version="1.0" encoding="UTF-8"?>
<svg width="17px" height="17px" viewBox="0 0 17 17" version="1.1" xmlns="http://www.w3.org/2000/svg" xmlns:xlink="http://www.w3.org/1999/xlink">
    <!-- Generator: Sketch 60.1 (88133) - https://sketch.com -->
    <title>3@2x</title>
    <desc>Created with Sketch.</desc>
    <defs>
        <linearGradient x1="0%" y1="0.16478944%" x2="100%" y2="99.8352106%" id="linearGradient-1">
            <stop stop-color="#35D87C" offset="0%"></stop>
            <stop stop-color="#16C562" offset="100%"></stop>
        </linearGradient>
    </defs>
    <g id="VirgoX-Web" stroke="none" stroke-width="1" fill="none" fill-rule="evenodd">
        <g id="2.4Login弹窗3备份-13" transform="translate(-766.000000, -624.000000)" fill="url(#linearGradient-1)">
            <g id="滑块验证" transform="translate(574.997589, 417.000000)">
                <g id="success" transform="translate(172.002411, 188.000000)">
                    <path d="M20.1036384,19 C20.713161,19 21.2072767,19.4941157 21.2072767,20.1036384 L21.2072767,34.8188165 C21.2072767,35.4283391 20.713161,35.9224548 20.1036384,35.9224548 C19.4941157,35.9224548 19,35.4283391 19,34.8188165 L19,20.1036384 C19,19.4941157 19.4941157,19 20.1036384,19 Z M27.4752052,19 C28.0847278,19 28.5788435,19.4941157 28.5788435,20.1036384 L28.5788435,34.8188165 C28.5788435,35.4283391 28.0847278,35.9224548 27.4752052,35.9224548 C26.8656826,35.9224548 26.3715668,35.4283391 26.3715668,34.8188165 L26.3715668,20.1036384 C26.3715668,19.4941157 26.8656826,19 27.4752052,19 Z M34.846772,19 C35.4562947,19 35.9504104,19.4941157 35.9504104,20.1036384 L35.9504104,34.8188165 C35.9504104,35.4283391 35.4562947,35.9224548 34.846772,35.9224548 C34.2372494,35.9224548 33.7431337,35.4283391 33.7431337,34.8188165 L33.7431337,20.1036384 C33.7431337,19.4941157 34.2372494,19 34.846772,19 Z" id="3"></path>
                </g>
            </g>
        </g>
    </g>
</svg>