<?xml version="1.0" encoding="UTF-8"?>
<svg width="17px" height="17px" viewBox="0 0 17 17" version="1.1" xmlns="http://www.w3.org/2000/svg" xmlns:xlink="http://www.w3.org/1999/xlink">
    <!-- Generator: Sketch 60.1 (88133) - https://sketch.com -->
    <title>1@2x</title>
    <desc>Created with Sketch.</desc>
    <defs>
        <linearGradient x1="13.300497%" y1="8.05771803%" x2="100%" y2="99.8352106%" id="linearGradient-1">
            <stop stop-color="#E884E8" offset="0%"></stop>
            <stop stop-color="#7B66C5" offset="100%"></stop>
        </linearGradient>
    </defs>
    <g id="VirgoX-Web" stroke="none" stroke-width="1" fill="none" fill-rule="evenodd">
        <g id="2.4Login弹窗3备份-11" transform="translate(-609.000000, -624.000000)" fill="url(#linearGradient-1)">
            <g id="滑块验证" transform="translate(574.997589, 417.000000)">
                <g id="anniu" transform="translate(15.002411, 188.000000)">
                    <g id="1" transform="translate(19.000000, 19.000000)">
                        <path d="M1.10363836,-5.32907052e-15 C1.71316099,-5.44103801e-15 2.20727672,0.494115724 2.20727672,1.10363836 L2.20727672,15.8188165 C2.20727672,16.4283391 1.71316099,16.9224548 1.10363836,16.9224548 C0.494115724,16.9224548 -3.33880441e-13,16.4283391 -3.35509398e-13,15.8188165 L-3.35509398e-13,1.10363836 C-3.35361998e-13,0.494115724 0.494115724,-5.21710303e-15 1.10363836,-5.32907052e-15 Z M8.47520519,-5.32907052e-15 C9.08472782,-5.44103801e-15 9.57884355,0.494115724 9.57884355,1.10363836 L9.57884355,15.8188165 C9.57884355,16.4283391 9.08472782,16.9224548 8.47520519,16.9224548 C7.86568255,16.9224548 7.37156683,16.4283391 7.37156683,15.8188165 L7.37156683,1.10363836 C7.37156683,0.494115724 7.86568255,-5.21710303e-15 8.47520519,-5.32907052e-15 Z M15.846772,-5.32907052e-15 C16.4562947,-5.44103801e-15 16.9504104,0.494115724 16.9504104,1.10363836 L16.9504104,15.8188165 C16.9504104,16.4283391 16.4562947,16.9224548 15.846772,16.9224548 C15.2372494,16.9224548 14.7431337,16.4283391 14.7431337,15.8188165 L14.7431337,1.10363836 C14.7431337,0.494115724 15.2372494,-5.21710303e-15 15.846772,-5.32907052e-15 Z" id="形状结合"></path>
                    </g>
                </g>
            </g>
        </g>
    </g>
</svg>